<?xml version="1.0" encoding="UTF-8" standalone="no"?>
<!DOCTYPE svg PUBLIC "-//W3C//DTD SVG 1.1//EN" "http://www.w3.org/Graphics/SVG/1.1/DTD/svg11.dtd">
<svg version="1.1" xmlns="http://www.w3.org/2000/svg" xmlns:xlink="http://www.w3.org/1999/xlink" preserveAspectRatio="xMidYMid meet" viewBox="0 0 254 254" width="254" height="254"><defs><path d="M235.25 189.53C200.75 249.28 124.24 269.78 64.5 235.29C4.75 200.79 -15.75 124.28 18.74 64.53C53.24 4.79 129.75 -15.71 189.5 18.78C249.24 53.28 269.74 129.79 235.25 189.53Z" id="aUJAGqo4V"></path><path d="M179.5 36.1L189.5 18.78" id="d1FLjEz5Uu"></path><path d="M65.04 234.34L75.04 217.02" id="c23V0rE8U"></path><path d="M18.74 64.53L36.06 74.53" id="apoglLHVZ"></path><path d="M217.93 179.53L235.25 189.53" id="a4URwC4Ix"></path><path d="M252 127C252 195.99 195.99 252 127 252C58.01 252 2 195.99 2 127C2 58.01 58.01 2 127 2C195.99 2 252 58.01 252 127Z" id="aFTY2m6hr"></path><path d="M127 27L127 2" id="amEykP3Ko"></path><path d="M127 250.68L127 225.68" id="cM8Tg343h"></path><path d="M217.97 74.5L235.29 64.5" id="ej4tpkak9"></path><path d="M19.73 188.95L37.05 178.95" id="b8XWuDDej"></path><path d="M64.53 18.74L74.53 36.06" id="b34kukprTz"></path><path d="M179.53 217.93L189.53 235.25" id="b2rU9F3Sfe"></path><path d="M3.39 127.03L28.39 127.03" id="c3tOtCEwM9"></path><path d="M226.63 127.03L251.63 127.03" id="b5O3YYA5CE"></path></defs><g><g><g><use xlink:href="#aUJAGqo4V" opacity="1" fill="#ffffff" fill-opacity="0"></use><g><use xlink:href="#aUJAGqo4V" opacity="1" fill-opacity="0" stroke="#000000" stroke-width="2" stroke-opacity="1"></use></g></g><g><g><use xlink:href="#d1FLjEz5Uu" opacity="0.6" fill-opacity="0" stroke="#000000" stroke-width="3" stroke-opacity="1"></use></g></g><g><g><use xlink:href="#c23V0rE8U" opacity="0.6" fill-opacity="0" stroke="#000000" stroke-width="3" stroke-opacity="1"></use></g></g><g><g><use xlink:href="#apoglLHVZ" opacity="0.6" fill-opacity="0" stroke="#000000" stroke-width="3" stroke-opacity="1"></use></g></g><g><g><use xlink:href="#a4URwC4Ix" opacity="0.6" fill-opacity="0" stroke="#000000" stroke-width="3" stroke-opacity="1"></use></g></g><g><use xlink:href="#aFTY2m6hr" opacity="1" fill="#ffffff" fill-opacity="0"></use><g><use xlink:href="#aFTY2m6hr" opacity="1" fill-opacity="0" stroke="#000000" stroke-width="2" stroke-opacity="1"></use></g></g><g><g><use xlink:href="#amEykP3Ko" opacity="1" fill-opacity="0" stroke="#000000" stroke-width="5" stroke-opacity="1"></use></g></g><g><g><use xlink:href="#cM8Tg343h" opacity="1" fill-opacity="0" stroke="#000000" stroke-width="5" stroke-opacity="1"></use></g></g><g><g><use xlink:href="#ej4tpkak9" opacity="0.6" fill-opacity="0" stroke="#000000" stroke-width="3" stroke-opacity="1"></use></g></g><g><g><use xlink:href="#b8XWuDDej" opacity="0.6" fill-opacity="0" stroke="#000000" stroke-width="3" stroke-opacity="1"></use></g></g><g><g><use xlink:href="#b34kukprTz" opacity="0.6" fill-opacity="0" stroke="#000000" stroke-width="3" stroke-opacity="1"></use></g></g><g><g><use xlink:href="#b2rU9F3Sfe" opacity="0.6" fill-opacity="0" stroke="#000000" stroke-width="3" stroke-opacity="1"></use></g></g><g><g><use xlink:href="#c3tOtCEwM9" opacity="1" fill-opacity="0" stroke="#000000" stroke-width="5" stroke-opacity="1"></use></g></g><g><g><use xlink:href="#b5O3YYA5CE" opacity="1" fill-opacity="0" stroke="#000000" stroke-width="5" stroke-opacity="1"></use></g></g></g></g></svg>