<svg width="25" height="200" xmlns="http://www.w3.org/2000/svg" xmlns:xlink="http://www.w3.org/1999/xlink">
 <!-- Created with Method Draw - http://github.com/duopixel/Method-Draw/ -->

 <g>
  <title>background</title>
  <rect fill="#0fffff" id="canvas_background" height="202" width="27" y="-1" x="-1"/>
  <g display="none" overflow="visible" y="0" x="0" height="100%" width="100%" id="canvasGrid">
   <rect fill="url(#gridpattern)" stroke-width="0" y="0" x="0" height="100%" width="100%"/>
  </g>
 </g>
 <g>
  <title>Layer 1</title>
  <defs>
   <path id="svg_8" d="m0.39,10.36l0,0l0,21.32l0,0l0,-21.32z"/>
   <path id="svg_7" d="m6.42,0l2.22,0l0,94.97l-2.22,0l0,-94.97z"/>
   <path id="svg_6" d="m8.63,92.6l1.11,3.11l-2.21,0l-2.21,0l1.11,-3.11l1.1,-3.11l1.1,3.11z"/>
  </defs>
  <g id="svg_20">
   <g transform="matrix(2, 0, 0, 2, 0, 0)" id="svg_10">
    <g id="svg_11">
     <g id="svg_12">
      <use x="-1.06543" y="1.64453" id="svg_13" fill-opacity="0.98" fill="#5d1919" xlink:href="#svg_8"/>
     </g>
     <g id="svg_14">
      <use x="-1.06543" y="1.64453" id="svg_15" fill="#000000" xlink:href="#svg_7"/>
      <g id="svg_16">
       <use x="-1.06543" y="1.64453" id="svg_17" stroke="#000000" fill-opacity="0" xlink:href="#svg_7"/>
      </g>
     </g>
     <g id="svg_18">
      <use x="-1.06543" y="1.64453" id="svg_19" fill="#000000" xlink:href="#svg_6"/>
     </g>
    </g>
   </g>
  </g>
 </g>
</svg>